<?xml version="1.0" standalone="no"?>
<!DOCTYPE svg PUBLIC "-//W3C//DTD SVG 20010904//EN"
 "http://www.w3.org/TR/2001/REC-SVG-20010904/DTD/svg10.dtd">
<svg version="1.0" xmlns="http://www.w3.org/2000/svg"
 width="612.000000pt" height="407.000000pt" viewBox="0 0 612.000000 407.000000"
 preserveAspectRatio="xMidYMid meet">

<g transform="translate(0.000000,407.000000) scale(0.100000,-0.100000)"
fill="#5F5BFF" stroke="none">
<path d="M3934 3795 c-219 -40 -394 -129 -517 -265 -215 -238 -165 -553 120
-757 l63 -44 -14 -34 c-15 -34 -63 -111 -111 -177 -32 -44 -29 -79 11 -104 24
-16 28 -15 97 11 71 28 198 83 328 144 64 30 71 31 235 34 141 4 185 9 266 30
253 67 432 195 520 375 l43 85 0 116 c0 114 -1 118 -38 196 -53 111 -166 222
-292 287 -107 55 -222 92 -329 107 -102 14 -293 12 -382 -4z m-157 -475 c62
-38 86 -134 46 -188 -24 -34 -79 -62 -118 -62 -40 0 -90 32 -115 72 -70 115
71 249 187 178z m434 -3 c19 -12 42 -39 52 -59 56 -113 -81 -235 -190 -168
-45 27 -66 64 -66 115 0 106 117 171 204 112z m424 3 c89 -55 84 -190 -8 -233
-66 -32 -140 -12 -177 48 -73 118 67 258 185 185z"/>
<path d="M2381 3324 c-19 -24 -21 -40 -21 -145 l0 -119 -138 0 c-168 0 -222
-13 -274 -67 -50 -51 -68 -99 -68 -178 l0 -65 -49 0 c-54 0 -107 -29 -128 -70
-8 -15 -13 -67 -13 -133 0 -163 20 -196 130 -207 l55 -5 5 -76 c7 -97 43 -161
110 -199 39 -22 61 -26 165 -30 l120 -5 3 -77 3 -78 -112 0 c-61 0 -129 -5
-150 -11 -46 -14 -102 -59 -132 -105 -18 -28 -69 -60 -262 -163 -190 -102
-244 -135 -259 -160 -12 -22 -34 -137 -72 -383 l-55 -352 -58 -52 c-69 -63
-101 -129 -109 -221 l-5 -63 82 0 81 0 0 48 c0 114 110 185 209 134 49 -25 71
-60 78 -125 l6 -58 76 3 76 3 -2 63 c-2 82 -38 157 -100 212 l-46 41 13 97 c7
53 27 184 44 291 l32 194 119 64 c65 35 120 63 122 63 2 0 3 -195 3 -434 0
-297 4 -444 11 -467 17 -48 54 -95 102 -127 l41 -27 425 0 c467 0 451 -2 515
62 66 65 66 62 66 546 0 305 3 437 11 437 6 0 62 -27 124 -60 126 -67 117 -55
135 -190 6 -41 24 -160 41 -264 28 -174 29 -190 14 -198 -80 -45 -135 -139
-143 -240 l-5 -68 82 0 81 0 0 48 c0 88 56 146 141 146 80 0 135 -54 146 -142
l6 -52 74 0 75 0 -4 72 c-2 44 -11 89 -23 112 -20 41 -74 102 -113 126 -20 13
-26 31 -42 140 -57 380 -92 586 -105 610 -21 41 -40 53 -286 185 -203 108
-227 123 -254 164 -20 31 -47 54 -84 73 -50 26 -62 28 -173 28 l-119 0 3 78 3
77 120 6 c128 6 154 12 202 53 45 38 67 91 73 176 l5 75 55 5 c111 11 130 41
130 202 0 70 -5 122 -13 138 -21 41 -74 70 -128 70 l-49 0 0 68 c0 84 -23 136
-79 184 -56 48 -103 58 -265 58 l-136 0 0 119 c0 105 -2 121 -21 145 -16 20
-29 26 -59 26 -30 0 -43 -6 -59 -26z m346 -495 c42 -16 72 -48 84 -91 8 -32 6
-46 -10 -84 -16 -36 -29 -49 -65 -65 -38 -17 -52 -18 -85 -9 -97 26 -130 150
-58 218 41 39 86 49 134 31z m-446 -38 c33 -33 39 -45 39 -82 0 -107 -99 -169
-189 -121 -122 65 -72 242 68 242 37 0 49 -6 82 -39z m390 -431 c15 -8 19 -21
19 -58 0 -27 -5 -53 -12 -60 -9 -9 -75 -12 -237 -12 -254 0 -261 2 -261 71 0
66 13 69 258 69 128 0 221 -4 233 -10z m105 -1021 c18 -15 20 -239 2 -257 -17
-17 -659 -17 -676 0 -8 8 -12 52 -12 134 0 122 0 122 25 131 40 13 644 6 661
-8z m-577 -364 c66 -34 50 -126 -24 -141 -89 -17 -121 117 -35 149 24 9 29 8
59 -8z m299 -21 c12 -14 22 -34 22 -45 0 -24 -52 -79 -74 -79 -30 0 -65 23
-76 51 -15 35 3 77 40 96 31 16 59 8 88 -23z m275 9 c28 -26 23 -87 -10 -113
-50 -39 -123 -4 -123 59 0 68 80 101 133 54z"/>
</g>
</svg>
