<?xml version="1.0" standalone="no"?>
<!DOCTYPE svg PUBLIC "-//W3C//DTD SVG 20010904//EN" "http://www.w3.org/TR/2001/REC-SVG-20010904/DTD/svg10.dtd">
<svg version="1.0" xmlns="http://www.w3.org/2000/svg"
    width="575.000000pt" height="506.000000pt" viewBox="0 0 575.000000 506.000000"
    preserveAspectRatio="xMidYMid meet">
    <metadata> Created by potrace 1.16, written by Peter Selinger 2001-2019 </metadata>
    <g transform="translate(0.000000,506.000000) scale(0.100000,-0.100000)"
        fill="#5F5BFF" stroke="none">
        <path
            d="M2781 4678 c-53 -28 -79 -60 -92 -114 -6 -21 -13 -145 -16 -276 -3
-130 -9 -242 -13 -248 -6 -9 -105 -15 -361 -21 l-352 -9 -61 -28 c-83 -40
-160 -100 -207 -162 -75 -100 -104 -194 -115 -381 l-7 -117 -95 -7 c-115 -9
-168 -23 -216 -60 -90 -69 -109 -154 -104 -462 3 -215 3 -219 31 -275 28 -58
80 -108 131 -128 15 -5 60 -12 99 -15 40 -3 91 -8 113 -11 l42 -5 7 -117 c9
-156 19 -204 59 -287 61 -129 178 -232 311 -275 62 -20 96 -23 308 -28 l237
-4 0 -173 0 -173 -257 -5 c-278 -5 -330 -13 -424 -64 -64 -34 -158 -125 -203
-195 -43 -68 -69 -88 -201 -158 -55 -29 -143 -77 -195 -105 -52 -29 -223 -121
-380 -205 -275 -146 -369 -205 -417 -259 -28 -32 -48 -94 -63 -191 -6 -41 -13
-85 -16 -97 l-4 -23 419 0 420 0 177 91 c138 71 178 88 185 77 5 -7 9 -48 9
-90 l0 -78 263 0 263 0 9 32 c6 19 24 42 44 55 l34 23 721 0 721 -1 38 -34
c20 -20 37 -44 37 -55 0 -19 7 -20 275 -20 l275 0 0 85 c0 56 4 85 11 85 6 0
85 -38 175 -85 l163 -85 420 0 421 0 -6 33 c-15 83 -46 203 -60 233 -31 66
-131 144 -289 228 -83 44 -235 125 -340 181 -104 56 -244 130 -310 165 -207
108 -224 120 -281 206 -43 65 -148 165 -200 192 -88 45 -156 55 -419 61 l-250
6 0 170 0 170 230 7 c250 7 304 16 411 68 81 39 170 135 218 232 35 70 37 79
45 223 9 144 16 184 30 186 3 0 54 4 113 8 130 10 171 30 241 116 l49 60 -4
285 c-4 313 -6 323 -68 394 -52 58 -98 77 -229 90 -134 13 -128 7 -130 141 -4
203 -37 298 -144 407 -45 47 -87 77 -154 111 l-91 47 -260 0 c-142 0 -300 3
-350 6 l-92 7 0 141 c-1 247 -15 400 -39 440 -30 47 -80 76 -143 83 -43 4 -61
0 -97 -19z m733 -1188 c167 -63 247 -251 172 -404 -29 -59 -84 -114 -144 -142
-55 -26 -149 -30 -213 -9 -76 26 -161 112 -183 185 -28 96 -19 170 33 252 36
56 83 93 152 118 70 25 115 25 183 0z m-1134 -6 c76 -23 171 -118 194 -194 20
-67 20 -93 0 -160 -20 -68 -61 -128 -111 -162 -57 -40 -86 -48 -175 -48 -96 0
-151 23 -206 85 -53 61 -75 119 -75 195 1 106 45 192 126 246 81 54 156 65
247 38z m1017 -1076 c35 -39 46 -71 46 -128 0 -56 -18 -105 -49 -131 -14 -12
-104 -15 -532 -17 l-514 -4 -25 24 c-37 34 -53 72 -53 123 0 52 18 102 46 127
26 23 50 24 585 26 l476 2 20 -22z" />
    </g>
</svg>