<svg version="1.1" id="Layer_1" xmlns="http://www.w3.org/2000/svg" xmlns:xlink="http://www.w3.org/1999/xlink" x="0px" y="0px"
	 width="100%" viewBox="0 0 1126 552" enable-background="new 0 0 1126 552" xml:space="preserve">
<path fill="#FEFEFF" opacity="1.000000" stroke="none" 
	d="
M733.000000,553.000000 
	C488.666748,553.000000 244.833481,553.000000 1.000164,553.000000 
	C1.000109,369.000122 1.000109,185.000259 1.000054,1.000287 
	C376.333099,1.000191 751.666199,1.000191 1126.999512,1.000096 
	C1126.999634,184.999710 1126.999634,368.999420 1126.999756,552.999573 
	C995.833313,553.000000 864.666687,553.000000 733.000000,553.000000 
M455.499634,509.341797 
	C576.254395,509.341797 697.009216,509.341797 817.663452,509.341797 
	C817.663452,485.979645 817.663452,463.233246 817.663452,440.447449 
	C812.909424,440.447449 808.492004,440.447449 803.681152,440.447449 
	C803.681152,458.643921 803.681152,476.590698 803.681152,494.763855 
	C551.541687,494.763855 299.800323,494.763855 48.008331,494.763855 
	C48.008331,345.180573 48.008331,195.826828 48.008331,46.364479 
	C299.966675,46.364479 551.565186,46.364479 803.657898,46.364479 
	C803.657898,61.314823 803.657898,76.067528 803.657898,90.757843 
	C808.715881,90.757843 813.272156,90.757843 817.692505,90.757843 
	C817.692505,70.969795 817.692505,51.550396 817.692505,32.286629 
	C556.025146,32.286629 294.661865,32.286629 33.355820,32.286629 
	C33.355820,191.429886 33.355820,350.178253 33.355820,509.341644 
	C173.905640,509.341644 314.202606,509.341644 455.499634,509.341797 
M510.665436,131.184296 
	C508.897522,131.184296 507.129608,131.184296 504.689209,131.184296 
	C504.689209,157.927078 504.689209,183.931870 504.689209,209.936661 
	C502.405518,208.711319 501.258484,207.172714 500.246948,205.549667 
	C485.627472,182.091522 470.977081,158.652344 456.483429,135.116608 
	C454.692657,132.208572 452.758484,130.950623 449.299866,131.106415 
	C443.146301,131.383591 436.955627,131.451859 430.810547,131.093079 
	C426.503418,130.841614 425.569611,132.445114 425.584412,136.481445 
	C425.722961,174.310547 425.663635,212.140396 425.677124,249.970016 
	C425.677643,251.429214 425.835663,252.888367 425.936066,254.619583 
	C433.949585,254.619583 441.673676,254.619583 450.185760,254.619583 
	C450.185760,226.582443 450.185760,198.811447 450.185760,171.040451 
	C452.133698,172.008118 453.062714,173.133133 453.822693,174.362625 
	C469.582611,199.857040 485.311310,225.370804 501.098877,250.848099 
	C502.012970,252.323227 503.328522,254.618927 504.536102,254.670013 
	C512.609863,255.011780 520.705017,254.847534 528.741577,254.847534 
	C528.741577,213.346390 528.741577,172.575302 528.741577,131.184479 
	C522.863037,131.184479 517.244080,131.184479 510.665436,131.184296 
M394.066376,252.254288 
	C394.066376,212.023514 394.066376,171.792755 394.066376,131.193481 
	C386.313171,131.193481 379.340759,131.262787 372.370941,131.159897 
	C369.519897,131.117844 369.143066,132.677780 369.167084,134.972626 
	C369.233398,141.302673 369.188385,147.633865 369.188080,153.964615 
	C369.187683,161.581985 369.187988,169.199371 369.187988,177.081451 
	C350.879578,177.081451 333.163422,177.081451 314.833496,177.081451 
	C314.833496,161.744812 314.833496,146.689514 314.833496,131.502731 
	C306.311493,131.502731 298.406525,131.502731 290.245483,131.502731 
	C290.245483,172.689697 290.245483,213.556915 290.245483,254.521515 
	C298.611969,254.521515 306.646332,254.521515 315.129333,254.521515 
	C315.129333,235.885971 315.129333,217.637787 315.129333,199.295731 
	C333.318634,199.295731 351.048187,199.295731 369.249908,199.295731 
	C369.249908,217.862595 369.249908,236.112900 369.249908,254.844208 
	C377.327087,254.844208 384.939941,254.875183 392.550995,254.773682 
	C393.052185,254.766998 393.539825,253.748825 394.066376,252.254288 
M584.203003,183.500015 
	C584.203003,166.236725 584.203003,148.973450 584.203003,131.522552 
	C575.790100,131.522552 568.059753,131.522552 559.794312,131.522552 
	C559.794312,135.640137 559.780273,139.434662 559.796631,143.229065 
	C559.902100,167.714996 559.349182,192.227386 560.324036,216.678802 
	C561.182373,238.206680 573.609009,251.748535 594.706726,255.148529 
	C603.611755,256.583649 612.976379,256.710480 621.963867,255.789703 
	C645.311829,253.397659 659.437744,237.970779 659.866333,214.573090 
	C660.354553,187.927383 660.159546,161.269089 660.238281,134.616196 
	C660.241089,133.661652 659.997620,132.706390 659.833679,131.489578 
	C651.902588,131.489578 644.171509,131.489578 635.821655,131.489578 
	C635.821655,133.566208 635.822083,135.344833 635.821594,137.123459 
	C635.814941,161.447205 635.893066,185.771408 635.768494,210.094543 
	C635.697693,223.905991 628.618042,232.930527 615.659180,234.485062 
	C598.623535,236.528625 584.880493,231.282898 584.286133,209.488678 
	C584.059143,201.164551 584.219482,192.829895 584.203003,183.500015 
M302.114868,400.403229 
	C324.928284,414.783783 355.310089,406.775543 364.789612,383.416168 
	C371.428223,367.057281 371.425873,350.173035 365.002228,333.720856 
	C358.589661,317.296906 345.471497,309.787109 328.388672,309.230499 
	C311.470398,308.679199 297.657806,314.765350 289.637512,330.503754 
	C283.108856,343.315063 282.825775,357.071686 284.904999,370.968719 
	C286.670013,382.765900 291.612762,392.824677 302.114868,400.403229 
M683.173523,341.359894 
	C665.786438,324.475372 636.580811,332.175354 629.904175,355.437714 
	C627.132507,365.094696 627.204285,374.814270 629.756042,384.507751 
	C632.937622,396.593964 640.552063,404.503357 652.931946,406.361511 
	C659.357483,407.325989 666.271973,406.966522 672.668640,405.702545 
	C680.741455,404.107422 686.247925,398.563690 689.437622,390.496033 
	C686.772217,388.980133 684.365784,387.611511 682.029907,386.283020 
	C672.438538,397.199432 662.123840,400.423157 651.787659,395.950470 
	C643.592590,392.404297 638.739136,383.091888 639.908203,372.409546 
	C656.429138,372.409546 673.027039,372.409546 689.503845,372.409546 
	C691.600281,360.203308 689.481201,349.599182 683.173523,341.359894 
M991.452515,333.002747 
	C989.790161,332.898315 988.129089,332.739380 986.465210,332.697815 
	C968.906494,332.259155 956.234985,341.787598 953.363892,358.757477 
	C952.164795,365.844940 952.265991,373.406128 953.234924,380.554169 
	C955.274170,395.598785 966.515320,405.899170 980.799133,407.057190 
	C998.925659,408.526733 1011.750061,401.551147 1016.321228,386.377197 
	C1018.383301,379.532074 1019.063660,371.929901 1018.689209,364.759033 
	C1017.768616,347.131897 1008.744324,336.876495 991.452515,333.002747 
M608.568298,384.499939 
	C608.442566,374.675659 608.550354,364.841187 608.121338,355.030182 
	C607.740173,346.312775 605.198730,338.223572 596.116699,334.918518 
	C586.381409,331.375763 576.549377,330.973602 567.731750,337.900085 
	C565.072693,339.988922 562.524902,342.219452 559.834106,344.461792 
	C559.834106,341.400452 559.834106,337.867340 559.834106,334.191772 
	C556.131714,334.191772 553.043518,334.191772 549.781006,334.191772 
	C549.781006,358.174438 549.781006,381.934387 549.781006,405.748535 
	C553.283997,405.748535 556.540100,405.748535 560.125305,405.748535 
	C560.125305,394.028625 559.838135,382.556976 560.246216,371.110107 
	C560.450806,365.368896 561.162659,359.416229 562.989441,354.013794 
	C566.073486,344.893372 575.862427,340.370728 586.287109,342.210083 
	C594.087708,343.586426 597.571289,348.581970 597.846558,359.462646 
	C598.057129,367.787109 597.910706,376.120667 597.916687,384.450195 
	C597.921753,391.550079 597.917725,398.649963 597.917725,405.710327 
	C601.744263,405.710327 604.979309,405.710327 608.568176,405.710327 
	C608.568176,398.777954 608.568176,392.138916 608.568298,384.499939 
M844.589600,398.011566 
	C834.504578,397.401642 830.103516,393.202271 829.830139,383.035004 
	C829.521423,371.552094 829.693176,360.056152 829.664490,348.565857 
	C829.652527,343.784882 829.662537,339.003845 829.662537,334.230652 
	C825.787415,334.230652 822.529175,334.230652 819.119873,334.230652 
	C819.119873,351.780670 818.840149,369.073517 819.251465,386.349945 
	C819.426819,393.716766 822.367615,400.302277 829.327698,404.213654 
	C840.890320,410.711548 855.848694,407.575500 863.727722,397.044434 
	C864.344910,396.219513 865.134521,395.523651 866.728394,393.825592 
	C866.728394,398.571411 866.728394,402.111786 866.728394,405.745361 
	C870.368958,405.745361 873.438049,405.745361 876.615112,405.745361 
	C876.615112,381.758118 876.615112,358.039764 876.615112,334.359192 
	C872.958313,334.359192 869.588318,334.359192 865.946655,334.359192 
	C865.946655,348.231689 866.201904,361.717743 865.877197,375.189789 
	C865.530518,389.575104 858.428223,397.209595 844.589600,398.011566 
M440.059326,362.582520 
	C440.059326,376.996613 440.059326,391.410675 440.059326,405.718445 
	C443.998749,405.718445 447.256409,405.718445 450.296387,405.718445 
	C450.296387,387.986969 450.687531,370.534241 450.137756,353.111145 
	C449.845947,343.862122 445.552612,336.320892 435.640106,333.938660 
	C424.520081,331.266266 414.101685,331.969788 406.125397,341.659210 
	C405.088409,342.918884 404.017029,344.150238 402.961548,345.394745 
	C402.579407,345.199432 402.197235,345.004150 401.815063,344.808868 
	C401.815063,341.254669 401.815063,337.700470 401.815063,334.299011 
	C398.208374,334.299011 395.130127,334.299011 392.185425,334.299011 
	C392.185425,358.346008 392.185425,382.064178 392.185425,405.870789 
	C395.644196,405.870789 398.776672,405.870789 401.845276,405.870789 
	C402.056152,405.440735 402.325653,405.146759 402.326904,404.851685 
	C402.372650,394.028931 402.112457,383.195251 402.527557,372.387421 
	C402.761017,366.308258 403.289795,360.010406 405.131165,354.275208 
	C408.133148,344.925293 418.236084,340.244659 428.732544,342.226196 
	C436.509857,343.694427 439.704437,348.605591 440.039337,359.615509 
	C440.059570,360.281097 440.053070,360.947479 440.059326,362.582520 
M762.970337,382.500000 
	C762.970337,390.257751 762.970337,398.015503 762.970337,405.705811 
	C766.991272,405.705811 770.399353,405.705811 774.242554,405.705811 
	C774.242554,377.039734 774.242554,348.664154 774.242554,319.815796 
	C784.412109,319.815796 794.140625,319.815796 803.782349,319.815796 
	C803.782349,316.550629 803.782349,313.767242 803.782349,310.774750 
	C780.188599,310.774750 756.815063,310.774750 733.273193,310.774750 
	C733.273193,313.906982 733.273193,316.804565 733.273193,320.167603 
	C743.257446,320.167603 752.985718,320.167603 762.970337,320.167603 
	C762.970337,340.924316 762.970337,361.212158 762.970337,382.500000 
M915.989075,363.500122 
	C915.989075,356.721863 915.989075,349.943604 915.989075,342.716858 
	C923.907410,342.716858 931.321777,342.716858 938.732483,342.716858 
	C938.732483,339.540405 938.732483,336.836090 938.732483,333.715149 
	C930.965088,333.715149 923.554749,333.715149 915.724976,333.715149 
	C915.724976,327.899750 915.724976,322.510406 915.724976,316.907532 
	C913.626221,317.288330 911.984741,317.885223 910.369019,317.822235 
	C905.825256,317.645111 904.705750,319.884247 905.132019,323.999969 
	C905.465515,327.219696 905.198792,330.501587 905.198792,334.079163 
	C900.739441,334.079163 896.964233,334.079163 893.214844,334.079163 
	C893.214844,337.151031 893.214844,339.850006 893.214844,342.959656 
	C897.342041,342.959656 901.100159,342.959656 905.198792,342.959656 
	C905.198792,349.842896 905.118469,356.306549 905.217529,362.767517 
	C905.367920,372.581177 905.195129,382.429993 906.003540,392.194000 
	C906.673035,400.280823 911.721497,405.491455 919.595520,406.613678 
	C924.260437,407.278473 929.291077,407.102905 933.894165,406.098907 
	C942.216003,404.283752 942.858032,401.638123 937.429321,394.635376 
	C936.750305,394.928894 936.004089,395.218994 935.285828,395.566772 
	C923.776550,401.139221 916.149109,396.582916 916.003662,383.985565 
	C915.928650,377.491211 915.989563,370.995270 915.989075,363.500122 
M474.170837,351.499969 
	C474.170837,353.997559 474.166748,356.495148 474.171600,358.992737 
	C474.192291,369.648621 473.880249,380.318451 474.322021,390.956940 
	C474.886536,404.549469 486.903503,411.567902 498.630920,405.293671 
	C498.208527,402.664429 497.775574,399.969360 497.351349,397.328796 
	C486.290314,398.082855 484.979950,396.812988 484.977631,385.812988 
	C484.972382,360.670563 484.975952,335.528168 484.975891,310.385742 
	C484.975891,308.633484 484.975861,306.881226 484.975861,305.311584 
	C480.996094,305.311584 477.743530,305.311584 474.170837,305.311584 
	C474.170837,320.585663 474.170837,335.542816 474.170837,351.499969 
M1050.120361,378.525848 
	C1050.426880,372.379578 1050.342163,366.183289 1051.119873,360.097229 
	C1052.841797,346.622986 1062.028809,340.803741 1074.961182,344.553284 
	C1075.879028,344.819397 1076.851440,344.897430 1078.219971,345.136566 
	C1079.154053,342.016693 1080.033081,339.080627 1081.056274,335.663208 
	C1068.174194,330.986877 1057.841797,332.986938 1049.778931,344.884277 
	C1049.778931,341.349884 1049.778931,337.815460 1049.778931,334.231140 
	C1046.084717,334.231140 1043.001343,334.231140 1039.814087,334.231140 
	C1039.814087,358.239685 1039.814087,381.989685 1039.814087,405.715820 
	C1043.343872,405.715820 1046.600586,405.715820 1050.120361,405.715820 
	C1050.120361,396.791046 1050.120361,388.154449 1050.120361,378.525848 
M517.591064,405.998779 
	C519.714478,405.998779 521.837952,405.998779 524.164795,405.998779 
	C524.164795,381.847260 524.164795,358.151306 524.164795,334.218140 
	C520.736877,334.218140 517.503540,334.218140 513.876465,334.218140 
	C513.876465,357.524841 513.849548,380.602173 513.991943,403.678467 
	C513.996765,404.457031 515.707214,405.225037 517.591064,405.998779 
M526.731018,311.744629 
	C524.895935,306.290344 521.335632,304.002808 516.839417,305.389160 
	C512.944214,306.590210 510.911774,310.239990 511.891418,314.418549 
	C512.779968,318.208893 515.435730,319.962219 519.123291,319.949524 
	C523.931946,319.932983 526.279480,317.081818 526.731018,311.744629 
z"/>
<path fill="#021F9E" opacity="1.000000" stroke="none" 
	d="
M454.999634,509.341736 
	C314.202606,509.341644 173.905640,509.341644 33.355820,509.341644 
	C33.355820,350.178253 33.355820,191.429886 33.355820,32.286629 
	C294.661865,32.286629 556.025146,32.286629 817.692505,32.286629 
	C817.692505,51.550396 817.692505,70.969795 817.692505,90.757843 
	C813.272156,90.757843 808.715881,90.757843 803.657898,90.757843 
	C803.657898,76.067528 803.657898,61.314823 803.657898,46.364479 
	C551.565186,46.364479 299.966675,46.364479 48.008331,46.364479 
	C48.008331,195.826828 48.008331,345.180573 48.008331,494.763855 
	C299.800323,494.763855 551.541687,494.763855 803.681152,494.763855 
	C803.681152,476.590698 803.681152,458.643921 803.681152,440.447449 
	C808.492004,440.447449 812.909424,440.447449 817.663452,440.447449 
	C817.663452,463.233246 817.663452,485.979645 817.663452,509.341797 
	C697.009216,509.341797 576.254395,509.341797 454.999634,509.341736 
z"/>
<path fill="#5D64F6" opacity="1.000000" stroke="none" 
	d="
M511.145264,131.184387 
	C517.244080,131.184479 522.863037,131.184479 528.741577,131.184479 
	C528.741577,172.575302 528.741577,213.346390 528.741577,254.847534 
	C520.705017,254.847534 512.609863,255.011780 504.536102,254.670013 
	C503.328522,254.618927 502.012970,252.323227 501.098877,250.848099 
	C485.311310,225.370804 469.582611,199.857040 453.822693,174.362625 
	C453.062714,173.133133 452.133698,172.008118 450.185760,171.040451 
	C450.185760,198.811447 450.185760,226.582443 450.185760,254.619583 
	C441.673676,254.619583 433.949585,254.619583 425.936066,254.619583 
	C425.835663,252.888367 425.677643,251.429214 425.677124,249.970016 
	C425.663635,212.140396 425.722961,174.310547 425.584412,136.481445 
	C425.569611,132.445114 426.503418,130.841614 430.810547,131.093079 
	C436.955627,131.451859 443.146301,131.383591 449.299866,131.106415 
	C452.758484,130.950623 454.692657,132.208572 456.483429,135.116608 
	C470.977081,158.652344 485.627472,182.091522 500.246948,205.549667 
	C501.258484,207.172714 502.405518,208.711319 504.689209,209.936661 
	C504.689209,183.931870 504.689209,157.927078 504.689209,131.184296 
	C507.129608,131.184296 508.897522,131.184296 511.145264,131.184387 
z"/>
<path fill="#5D64F6" opacity="1.000000" stroke="none" 
	d="
M394.050079,252.727722 
	C393.539825,253.748825 393.052185,254.766998 392.550995,254.773682 
	C384.939941,254.875183 377.327087,254.844208 369.249908,254.844208 
	C369.249908,236.112900 369.249908,217.862595 369.249908,199.295731 
	C351.048187,199.295731 333.318634,199.295731 315.129333,199.295731 
	C315.129333,217.637787 315.129333,235.885971 315.129333,254.521515 
	C306.646332,254.521515 298.611969,254.521515 290.245483,254.521515 
	C290.245483,213.556915 290.245483,172.689697 290.245483,131.502731 
	C298.406525,131.502731 306.311493,131.502731 314.833496,131.502731 
	C314.833496,146.689514 314.833496,161.744812 314.833496,177.081451 
	C333.163422,177.081451 350.879578,177.081451 369.187988,177.081451 
	C369.187988,169.199371 369.187683,161.581985 369.188080,153.964615 
	C369.188385,147.633865 369.233398,141.302673 369.167084,134.972626 
	C369.143066,132.677780 369.519897,131.117844 372.370941,131.159897 
	C379.340759,131.262787 386.313171,131.193481 394.066376,131.193481 
	C394.066376,171.792755 394.066376,212.023514 394.050079,252.727722 
z"/>
<path fill="#5C63F6" opacity="1.000000" stroke="none" 
	d="
M584.203125,184.000031 
	C584.219482,192.829895 584.059143,201.164551 584.286133,209.488678 
	C584.880493,231.282898 598.623535,236.528625 615.659180,234.485062 
	C628.618042,232.930527 635.697693,223.905991 635.768494,210.094543 
	C635.893066,185.771408 635.814941,161.447205 635.821594,137.123459 
	C635.822083,135.344833 635.821655,133.566208 635.821655,131.489578 
	C644.171509,131.489578 651.902588,131.489578 659.833679,131.489578 
	C659.997620,132.706390 660.241089,133.661652 660.238281,134.616196 
	C660.159546,161.269089 660.354553,187.927383 659.866333,214.573090 
	C659.437744,237.970779 645.311829,253.397659 621.963867,255.789703 
	C612.976379,256.710480 603.611755,256.583649 594.706726,255.148529 
	C573.609009,251.748535 561.182373,238.206680 560.324036,216.678802 
	C559.349182,192.227386 559.902100,167.714996 559.796631,143.229065 
	C559.780273,139.434662 559.794312,135.640137 559.794312,131.522552 
	C568.059753,131.522552 575.790100,131.522552 584.203003,131.522552 
	C584.203003,148.973450 584.203003,166.236725 584.203125,184.000031 
z"/>
<path fill="#05229F" opacity="1.000000" stroke="none" 
	d="
M301.811584,400.207764 
	C291.612762,392.824677 286.670013,382.765900 284.904999,370.968719 
	C282.825775,357.071686 283.108856,343.315063 289.637512,330.503754 
	C297.657806,314.765350 311.470398,308.679199 328.388672,309.230499 
	C345.471497,309.787109 358.589661,317.296906 365.002228,333.720856 
	C371.425873,350.173035 371.428223,367.057281 364.789612,383.416168 
	C355.310089,406.775543 324.928284,414.783783 301.811584,400.207764 
M352.621002,382.900543 
	C358.659576,369.391052 358.569550,355.320312 355.415863,341.333557 
	C352.239532,327.246460 342.581146,320.221497 327.577484,319.694275 
	C312.634155,319.169220 302.731781,325.618164 298.446869,339.549713 
	C294.644806,351.911469 294.786377,364.557709 298.404755,376.961090 
	C301.822479,388.676575 309.842499,395.455139 322.096802,396.617188 
	C334.458862,397.789398 345.301636,395.097382 352.621002,382.900543 
z"/>
<path fill="#06229F" opacity="1.000000" stroke="none" 
	d="
M683.405701,341.633179 
	C689.481201,349.599182 691.600281,360.203308 689.503845,372.409546 
	C673.027039,372.409546 656.429138,372.409546 639.908203,372.409546 
	C638.739136,383.091888 643.592590,392.404297 651.787659,395.950470 
	C662.123840,400.423157 672.438538,397.199432 682.029907,386.283020 
	C684.365784,387.611511 686.772217,388.980133 689.437622,390.496033 
	C686.247925,398.563690 680.741455,404.107422 672.668640,405.702545 
	C666.271973,406.966522 659.357483,407.325989 652.931946,406.361511 
	C640.552063,404.503357 632.937622,396.593964 629.756042,384.507751 
	C627.204285,374.814270 627.132507,365.094696 629.904175,355.437714 
	C636.580811,332.175354 665.786438,324.475372 683.405701,341.633179 
M668.224670,342.829865 
	C651.866394,338.338837 637.988953,348.545502 640.456482,363.604370 
	C646.874329,363.604370 653.346252,363.604370 659.818237,363.604370 
	C666.384033,363.604370 672.949829,363.604370 679.747192,363.604370 
	C679.155762,354.522827 677.733337,346.843414 668.224670,342.829865 
z"/>
<path fill="#06229F" opacity="1.000000" stroke="none" 
	d="
M991.870056,333.047760 
	C1008.744324,336.876495 1017.768616,347.131897 1018.689209,364.759033 
	C1019.063660,371.929901 1018.383301,379.532074 1016.321228,386.377197 
	C1011.750061,401.551147 998.925659,408.526733 980.799133,407.057190 
	C966.515320,405.899170 955.274170,395.598785 953.234924,380.554169 
	C952.265991,373.406128 952.164795,365.844940 953.363892,358.757477 
	C956.234985,341.787598 968.906494,332.259155 986.465210,332.697815 
	C988.129089,332.739380 989.790161,332.898315 991.870056,333.047760 
M965.284729,356.096588 
	C962.678223,365.969421 962.343689,375.831879 965.994873,385.506836 
	C969.025513,393.537811 976.329651,397.944763 985.772034,397.859161 
	C995.136719,397.774261 1002.042480,393.509247 1005.091125,385.603485 
	C1008.687805,376.276611 1008.685364,366.688995 1006.079712,357.178223 
	C1003.443054,347.554474 996.897095,342.683014 986.781799,342.156769 
	C976.566772,341.625397 969.386658,346.120667 965.284729,356.096588 
z"/>
<path fill="#06229F" opacity="1.000000" stroke="none" 
	d="
M608.568237,384.999878 
	C608.568176,392.138916 608.568176,398.777954 608.568176,405.710327 
	C604.979309,405.710327 601.744263,405.710327 597.917725,405.710327 
	C597.917725,398.649963 597.921753,391.550079 597.916687,384.450195 
	C597.910706,376.120667 598.057129,367.787109 597.846558,359.462646 
	C597.571289,348.581970 594.087708,343.586426 586.287109,342.210083 
	C575.862427,340.370728 566.073486,344.893372 562.989441,354.013794 
	C561.162659,359.416229 560.450806,365.368896 560.246216,371.110107 
	C559.838135,382.556976 560.125305,394.028625 560.125305,405.748535 
	C556.540100,405.748535 553.283997,405.748535 549.781006,405.748535 
	C549.781006,381.934387 549.781006,358.174438 549.781006,334.191772 
	C553.043518,334.191772 556.131714,334.191772 559.834106,334.191772 
	C559.834106,337.867340 559.834106,341.400452 559.834106,344.461792 
	C562.524902,342.219452 565.072693,339.988922 567.731750,337.900085 
	C576.549377,330.973602 586.381409,331.375763 596.116699,334.918518 
	C605.198730,338.223572 607.740173,346.312775 608.121338,355.030182 
	C608.550354,364.841187 608.442566,374.675659 608.568237,384.999878 
z"/>
<path fill="#0724A0" opacity="1.000000" stroke="none" 
	d="
M845.019043,398.011047 
	C858.428223,397.209595 865.530518,389.575104 865.877197,375.189789 
	C866.201904,361.717743 865.946655,348.231689 865.946655,334.359192 
	C869.588318,334.359192 872.958313,334.359192 876.615112,334.359192 
	C876.615112,358.039764 876.615112,381.758118 876.615112,405.745361 
	C873.438049,405.745361 870.368958,405.745361 866.728394,405.745361 
	C866.728394,402.111786 866.728394,398.571411 866.728394,393.825592 
	C865.134521,395.523651 864.344910,396.219513 863.727722,397.044434 
	C855.848694,407.575500 840.890320,410.711548 829.327698,404.213654 
	C822.367615,400.302277 819.426819,393.716766 819.251465,386.349945 
	C818.840149,369.073517 819.119873,351.780670 819.119873,334.230652 
	C822.529175,334.230652 825.787415,334.230652 829.662537,334.230652 
	C829.662537,339.003845 829.652527,343.784882 829.664490,348.565857 
	C829.693176,360.056152 829.521423,371.552094 829.830139,383.035004 
	C830.103516,393.202271 834.504578,397.401642 845.019043,398.011047 
z"/>
<path fill="#05219F" opacity="1.000000" stroke="none" 
	d="
M440.059143,362.098022 
	C440.053070,360.947479 440.059570,360.281097 440.039337,359.615509 
	C439.704437,348.605591 436.509857,343.694427 428.732544,342.226196 
	C418.236084,340.244659 408.133148,344.925293 405.131165,354.275208 
	C403.289795,360.010406 402.761017,366.308258 402.527557,372.387421 
	C402.112457,383.195251 402.372650,394.028931 402.326904,404.851685 
	C402.325653,405.146759 402.056152,405.440735 401.845276,405.870789 
	C398.776672,405.870789 395.644196,405.870789 392.185425,405.870789 
	C392.185425,382.064178 392.185425,358.346008 392.185425,334.299011 
	C395.130127,334.299011 398.208374,334.299011 401.815063,334.299011 
	C401.815063,337.700470 401.815063,341.254669 401.815063,344.808868 
	C402.197235,345.004150 402.579407,345.199432 402.961548,345.394745 
	C404.017029,344.150238 405.088409,342.918884 406.125397,341.659210 
	C414.101685,331.969788 424.520081,331.266266 435.640106,333.938660 
	C445.552612,336.320892 449.845947,343.862122 450.137756,353.111145 
	C450.687531,370.534241 450.296387,387.986969 450.296387,405.718445 
	C447.256409,405.718445 443.998749,405.718445 440.059326,405.718445 
	C440.059326,391.410675 440.059326,376.996613 440.059143,362.098022 
z"/>
<path fill="#001D9D" opacity="1.000000" stroke="none" 
	d="
M762.970337,382.000000 
	C762.970337,361.212158 762.970337,340.924316 762.970337,320.167603 
	C752.985718,320.167603 743.257446,320.167603 733.273193,320.167603 
	C733.273193,316.804565 733.273193,313.906982 733.273193,310.774750 
	C756.815063,310.774750 780.188599,310.774750 803.782349,310.774750 
	C803.782349,313.767242 803.782349,316.550629 803.782349,319.815796 
	C794.140625,319.815796 784.412109,319.815796 774.242554,319.815796 
	C774.242554,348.664154 774.242554,377.039734 774.242554,405.705811 
	C770.399353,405.705811 766.991272,405.705811 762.970337,405.705811 
	C762.970337,398.015503 762.970337,390.257751 762.970337,382.000000 
z"/>
<path fill="#0724A0" opacity="1.000000" stroke="none" 
	d="
M915.989075,364.000092 
	C915.989563,370.995270 915.928650,377.491211 916.003662,383.985565 
	C916.149109,396.582916 923.776550,401.139221 935.285828,395.566772 
	C936.004089,395.218994 936.750305,394.928894 937.429321,394.635376 
	C942.858032,401.638123 942.216003,404.283752 933.894165,406.098907 
	C929.291077,407.102905 924.260437,407.278473 919.595520,406.613678 
	C911.721497,405.491455 906.673035,400.280823 906.003540,392.194000 
	C905.195129,382.429993 905.367920,372.581177 905.217529,362.767517 
	C905.118469,356.306549 905.198792,349.842896 905.198792,342.959656 
	C901.100159,342.959656 897.342041,342.959656 893.214844,342.959656 
	C893.214844,339.850006 893.214844,337.151031 893.214844,334.079163 
	C896.964233,334.079163 900.739441,334.079163 905.198792,334.079163 
	C905.198792,330.501587 905.465515,327.219696 905.132019,323.999969 
	C904.705750,319.884247 905.825256,317.645111 910.369019,317.822235 
	C911.984741,317.885223 913.626221,317.288330 915.724976,316.907532 
	C915.724976,322.510406 915.724976,327.899750 915.724976,333.715149 
	C923.554749,333.715149 930.965088,333.715149 938.732483,333.715149 
	C938.732483,336.836090 938.732483,339.540405 938.732483,342.716858 
	C931.321777,342.716858 923.907410,342.716858 915.989075,342.716858 
	C915.989075,349.943604 915.989075,356.721863 915.989075,364.000092 
z"/>
<path fill="#0824A0" opacity="1.000000" stroke="none" 
	d="
M474.170837,350.999939 
	C474.170837,335.542816 474.170837,320.585663 474.170837,305.311584 
	C477.743530,305.311584 480.996094,305.311584 484.975861,305.311584 
	C484.975861,306.881226 484.975891,308.633484 484.975891,310.385742 
	C484.975952,335.528168 484.972382,360.670563 484.977631,385.812988 
	C484.979950,396.812988 486.290314,398.082855 497.351349,397.328796 
	C497.775574,399.969360 498.208527,402.664429 498.630920,405.293671 
	C486.903503,411.567902 474.886536,404.549469 474.322021,390.956940 
	C473.880249,380.318451 474.192291,369.648621 474.171600,358.992737 
	C474.166748,356.495148 474.170837,353.997559 474.170837,350.999939 
z"/>
<path fill="#04209E" opacity="1.000000" stroke="none" 
	d="
M1050.120361,379.021851 
	C1050.120361,388.154449 1050.120361,396.791046 1050.120361,405.715820 
	C1046.600586,405.715820 1043.343872,405.715820 1039.814087,405.715820 
	C1039.814087,381.989685 1039.814087,358.239685 1039.814087,334.231140 
	C1043.001343,334.231140 1046.084717,334.231140 1049.778931,334.231140 
	C1049.778931,337.815460 1049.778931,341.349884 1049.778931,344.884277 
	C1057.841797,332.986938 1068.174194,330.986877 1081.056274,335.663208 
	C1080.033081,339.080627 1079.154053,342.016693 1078.219971,345.136566 
	C1076.851440,344.897430 1075.879028,344.819397 1074.961182,344.553284 
	C1062.028809,340.803741 1052.841797,346.622986 1051.119873,360.097229 
	C1050.342163,366.183289 1050.426880,372.379578 1050.120361,379.021851 
z"/>
<path fill="#001D9D" opacity="1.000000" stroke="none" 
	d="
M517.106812,405.998352 
	C515.707214,405.225037 513.996765,404.457031 513.991943,403.678467 
	C513.849548,380.602173 513.876465,357.524841 513.876465,334.218140 
	C517.503540,334.218140 520.736877,334.218140 524.164795,334.218140 
	C524.164795,358.151306 524.164795,381.847260 524.164795,405.998779 
	C521.837952,405.998779 519.714478,405.998779 517.106812,405.998352 
z"/>
<path fill="#0A26A1" opacity="1.000000" stroke="none" 
	d="
M526.776855,312.125122 
	C526.279480,317.081818 523.931946,319.932983 519.123291,319.949524 
	C515.435730,319.962219 512.779968,318.208893 511.891418,314.418549 
	C510.911774,310.239990 512.944214,306.590210 516.839417,305.389160 
	C521.335632,304.002808 524.895935,306.290344 526.776855,312.125122 
z"/>
<path fill="#FDFEFE" opacity="1.000000" stroke="none" 
	d="
M352.394104,383.196411 
	C345.301636,395.097382 334.458862,397.789398 322.096802,396.617188 
	C309.842499,395.455139 301.822479,388.676575 298.404755,376.961090 
	C294.786377,364.557709 294.644806,351.911469 298.446869,339.549713 
	C302.731781,325.618164 312.634155,319.169220 327.577484,319.694275 
	C342.581146,320.221497 352.239532,327.246460 355.415863,341.333557 
	C358.569550,355.320312 358.659576,369.391052 352.394104,383.196411 
z"/>
<path fill="#F6F7FC" opacity="1.000000" stroke="none" 
	d="
M668.613647,342.936829 
	C677.733337,346.843414 679.155762,354.522827 679.747192,363.604370 
	C672.949829,363.604370 666.384033,363.604370 659.818237,363.604370 
	C653.346252,363.604370 646.874329,363.604370 640.456482,363.604370 
	C637.988953,348.545502 651.866394,338.338837 668.613647,342.936829 
z"/>
<path fill="#FCFCFE" opacity="1.000000" stroke="none" 
	d="
M965.465393,355.743011 
	C969.386658,346.120667 976.566772,341.625397 986.781799,342.156769 
	C996.897095,342.683014 1003.443054,347.554474 1006.079712,357.178223 
	C1008.685364,366.688995 1008.687805,376.276611 1005.091125,385.603485 
	C1002.042480,393.509247 995.136719,397.774261 985.772034,397.859161 
	C976.329651,397.944763 969.025513,393.537811 965.994873,385.506836 
	C962.343689,375.831879 962.678223,365.969421 965.465393,355.743011 
z"/>
</svg>